<svg width="55" height="55" viewBox="0 0 55 55" fill="none" xmlns="http://www.w3.org/2000/svg">
    <g clip-path="url(#hn9xwt936a)">
        <path d="M20.74 11.657c2.467 0 4.446-2.04 4.446-4.552 0-2.514-1.98-4.553-4.446-4.553-2.447 0-4.446 2.04-4.446 4.553 0 2.512 1.999 4.552 4.446 4.552zM22 13.2H8.8c-2.2 0-2.2 3.3 0 3.3H22c2.2 0 2.2-3.3 0-3.3zm20.9 1.38c0-5.046-1.766-9.867-4.983-13.665C37.93.902 37.105 0 37.105 0L24.587 12.813l-.213.211.119.16c.192.352.299.742.343 1.131.013.161 0 .327-.019.493a2.865 2.865 0 0 1-.23.986l-.013.032-.08.191-.082.16c-.55.865-1.491 1.423-2.635 1.423H14.3v17.6l-2.406 16.756c-.263 1.38.789 2.724 2.137 2.992 1.35.283 3.294-.753 3.569-2.148l2.2-18.7h1.1l3.729 18.84c.275 1.396 2.202 2.291 3.563 2.008 1.337-.268 2.083-1.611 1.82-2.992L26.4 34.066V19.093L36.658 29.14s1.049-.907 1.049-.92c3.202-3.794 5.193-8.616 5.193-13.642zm-2.267 1.92c-.368 3.3-2.29 7.29-4.7 10.21-2.228-2.274-7.333-6.556-9.533-9.362V16.5h14.233zm0-3.3h-14.34c2.634-3.3 7.56-7.736 10.084-10.313C38.798 5.803 40.279 8.8 40.633 13.2z" fill="#fff"/>
    </g>
    <defs>
        <clipPath id="hn9xwt936a">
            <path fill="#fff" d="M0 0h55v55H0z"/>
        </clipPath>
    </defs>
</svg>
