<svg width="47" height="47" viewBox="0 0 47 47" fill="none" xmlns="http://www.w3.org/2000/svg">
<path d="M47 7.18056V39.8194C47 43.7753 43.7753 47 39.8194 47H32.6389V28.7222H37.365C38.0308 28.7222 38.5922 28.2261 38.6706 27.5733L39.1536 23.6567C39.2058 23.2911 39.0883 22.9125 38.8403 22.6383C38.5922 22.3511 38.2397 22.1944 37.8611 22.1944H32.6389V17.625C32.6389 16.1889 33.8139 15.0139 35.25 15.0139H37.8611C38.5792 15.0139 39.1667 14.4264 39.1667 13.7083V9.29556C39.1667 8.62972 38.6444 8.06833 37.9786 8.00306C37.9003 7.99 36.0594 7.83333 33.7225 7.83333C27.9781 7.83333 24.8056 11.2539 24.8056 17.4553V22.1944H19.5833C18.8653 22.1944 18.2778 22.7819 18.2778 23.5V27.4167C18.2778 28.1347 18.8653 28.7222 19.5833 28.7222H24.8056V47H7.18056C3.22472 47 0 43.7753 0 39.8194V7.18056C0 3.22472 3.22472 0 7.18056 0H39.8194C43.7753 0 47 3.22472 47 7.18056Z" fill="white"/>
</svg>
