<svg width="48" height="48" viewBox="0 0 48 48" fill="none" xmlns="http://www.w3.org/2000/svg">
<path d="M23.8061 15.8713C19.4336 15.8713 15.8653 19.4396 15.8653 23.812C15.8653 28.1845 19.4336 31.7527 23.8061 31.7527C28.1785 31.7527 31.7468 28.1845 31.7468 23.812C31.7468 19.4396 28.1785 15.8713 23.8061 15.8713ZM47.6223 23.812C47.6223 20.5237 47.6521 17.2652 47.4674 13.9829C47.2827 10.1704 46.413 6.78683 43.6251 3.99894C40.8313 1.20509 37.4536 0.341323 33.6411 0.156655C30.3528 -0.0280134 27.0943 0.00177188 23.812 0.00177188C20.5237 0.00177188 17.2652 -0.0280134 13.9829 0.156655C10.1704 0.341323 6.78683 1.21105 3.99894 3.99894C1.20509 6.79279 0.341323 10.1704 0.156655 13.9829C-0.0280134 17.2712 0.00177188 20.5297 0.00177188 23.812C0.00177188 27.0944 -0.0280134 30.3588 0.156655 33.6411C0.341323 37.4536 1.21105 40.8372 3.99894 43.6251C6.79279 46.419 10.1704 47.2827 13.9829 47.4674C17.2712 47.6521 20.5297 47.6223 23.812 47.6223C27.1003 47.6223 30.3588 47.6521 33.6411 47.4674C37.4536 47.2827 40.8372 46.413 43.6251 43.6251C46.419 40.8313 47.2827 37.4536 47.4674 33.6411C47.658 30.3588 47.6223 27.1003 47.6223 23.812ZM23.8061 36.0299C17.0448 36.0299 11.5882 30.5733 11.5882 23.812C11.5882 17.0508 17.0448 11.5942 23.8061 11.5942C30.5673 11.5942 36.0239 17.0508 36.0239 23.812C36.0239 30.5733 30.5673 36.0299 23.8061 36.0299ZM36.5243 13.9472C34.9457 13.9472 33.6709 12.6724 33.6709 11.0938C33.6709 9.51515 34.9457 8.24035 36.5243 8.24035C38.1029 8.24035 39.3778 9.51515 39.3778 11.0938C39.3782 11.4686 39.3047 11.8399 39.1615 12.1863C39.0183 12.5327 38.8081 12.8474 38.543 13.1125C38.278 13.3775 37.9632 13.5877 37.6168 13.7309C37.2704 13.8742 36.8992 13.9477 36.5243 13.9472Z" fill="white"/>
</svg>
