<svg width="48" height="48" viewBox="0 0 48 48" fill="none" xmlns="http://www.w3.org/2000/svg">
<path d="M5.71429 0C2.56 0 0 2.56 0 5.71429V42.2857C0 45.44 2.56 48 5.71429 48H42.2857C45.44 48 48 45.44 48 42.2857V5.71429C48 2.56 45.44 0 42.2857 0H5.71429ZM12.5714 4.57143H15.3147L17.1429 9.14286L18.971 4.57143H21.7143L18.2857 12.5714V17.1429H16V12.5603C15.3143 10.7203 13.04 5.72571 12.5714 4.57143ZM24 8C25.0171 8 26.0229 8.30768 26.6629 9.08482C27.1544 9.64482 27.4286 10.548 27.4286 11.7366V13.4063C27.4286 14.5948 27.201 15.4177 26.721 15.9777C26.081 16.7434 25.0171 17.1429 24 17.1429C22.9829 17.1429 21.9436 16.7434 21.3036 15.9777C20.8121 15.4177 20.5714 14.5948 20.5714 13.4063V11.7478C20.5714 10.5592 20.8342 9.64482 21.3371 9.08482C21.9771 8.30768 22.8457 8 24 8ZM28.5714 8H30.8571V14.8571C30.9143 15.1657 31.245 15.3036 31.5536 15.3036C32.0221 15.3036 32.6171 14.7553 33.1429 14.1496V8H35.4286V17.1429H33.1429V15.5647C32.2171 16.4676 31.4284 17.1437 30.3884 17.1094C29.6341 17.0865 29.1088 16.812 28.846 16.2634C28.686 15.9434 28.5714 15.4284 28.5714 14.6741V8ZM24 9.85045C23.8429 9.85045 23.6924 9.88491 23.5558 9.9442C23.4192 10.0035 23.2955 10.0885 23.192 10.1942C23.0884 10.2999 23.0045 10.4254 22.9464 10.5647C22.8884 10.704 22.8571 10.8579 22.8571 11.0179V14.2277C22.8571 14.5477 22.9848 14.8399 23.192 15.0513C23.2955 15.1571 23.4192 15.2421 23.5558 15.3013C23.6924 15.3606 23.8429 15.3951 24 15.3951C24.1571 15.3951 24.3076 15.3606 24.4442 15.3013C24.854 15.1235 25.1429 14.7077 25.1429 14.2277V11.0179C25.1429 10.3779 24.6286 9.85045 24 9.85045ZM23.9888 20.5714H24.0112C24.0112 20.5714 31.6791 20.5718 36.7991 20.9375C37.5191 21.0175 39.0745 21.029 40.4688 22.4576C41.5659 23.5319 41.9196 26 41.9196 26C41.9196 26 42.2857 27.7492 42.2857 30.6406V33.3482C42.2857 36.2396 41.9196 37.9888 41.9196 37.9888C41.9196 37.9888 41.5659 40.457 40.4688 41.5312C39.0745 42.9598 37.5191 42.9713 36.7991 43.0513C31.6791 43.4171 24 43.4286 24 43.4286C24 43.4286 14.4904 43.3368 11.5647 43.0625C10.7533 42.9139 8.92554 42.9596 7.53125 41.5424C6.43411 40.4567 6.08036 37.9888 6.08036 37.9888C6.08036 37.9888 5.71429 36.2396 5.71429 33.3482V30.6406C5.71429 27.7492 6.08036 26 6.08036 26C6.08036 26 6.43411 23.5319 7.53125 22.4576C8.92554 21.029 10.4809 21.0175 11.2009 20.9375C16.3209 20.5718 23.9888 20.5714 23.9888 20.5714ZM9.14286 25.1429V27.404H11.4286V38.8571H13.7143V27.404H16V25.1429H9.14286ZM24 25.1429V38.8571H26.2857V37.4286C27.0069 38.3211 27.9463 38.8571 28.7143 38.8571C29.5737 38.8571 30.3236 38.3946 30.6116 37.5089C30.7476 37.0301 30.848 36.5829 30.8571 35.5714V32.4286C30.8571 31.2994 30.7043 30.4488 30.5603 29.9688C30.2723 29.0762 29.5749 28.5771 28.7143 28.5714C27.5943 28.5634 27.1429 29.1429 26.2857 30.1429V25.1429H24ZM16 28.5714V36.2121C16 37.0372 16.1148 37.5908 16.2634 37.9531C16.5148 38.5406 17.0275 38.8571 17.7589 38.8571C18.5932 38.8571 19.6686 38.2694 20.5714 37.2969V38.8571H22.8571V28.5714H20.5714V35.7366C20.0686 36.404 19.3366 36.9018 18.8795 36.9018C18.5823 36.9018 18.3429 36.7767 18.2857 36.4487V28.5714H16ZM35.4621 28.5714C34.3101 28.5714 33.4104 28.9337 32.7589 29.6183C32.2789 30.1234 32 30.9492 32 32.0201V35.5246C32 36.5886 32.3069 37.3332 32.7857 37.8326C33.4383 38.5172 34.3362 38.8571 35.5156 38.8571C36.6939 38.8571 37.6215 38.4992 38.2455 37.7723C38.5198 37.4512 38.6958 37.0898 38.7723 36.6875C38.7929 36.5058 38.8571 36.0126 38.8571 35.4286H36.5714V36.3415C36.5714 36.8718 36.0594 37.3013 35.4286 37.3013C34.7977 37.3013 34.2857 36.8707 34.2857 36.3415V34.2857H38.8571V33.6272V31.9754C38.8571 30.9069 38.5948 30.1246 38.1228 29.6183C37.4908 28.9337 36.5935 28.5714 35.4621 28.5714ZM35.4286 30.2254C36.0594 30.2254 36.5714 30.6561 36.5714 31.1853V32.7031H34.2857V31.1853C34.2857 30.655 34.7977 30.2254 35.4286 30.2254ZM27.6808 30.567C28.3037 30.567 28.5714 30.9497 28.5714 32.1429V35.2857C28.5714 36.4789 28.3037 36.8906 27.6808 36.8906C27.3254 36.8906 26.6469 36.6469 26.2857 36.2857V31.2857C26.6469 30.9291 27.3254 30.567 27.6808 30.567Z" fill="white"/>
</svg>
