<?xml version="1.0" standalone="no"?>
<!DOCTYPE svg PUBLIC "-//W3C//DTD SVG 1.0//EN" "http://www.w3.org/TR/2001/REC-SVG-20010904/DTD/svg10.dtd">
<svg xmlns="http://www.w3.org/2000/svg" xmlns:xlink="http://www.w3.org/1999/xlink" id="body_1" width="24" height="24">

<g transform="matrix(0.51063836 0 0 0.51063836 0 0)">
    <path d="M47 7.18L47 39.82C 47 43.775 43.775 47 39.82 47L39.82 47L32.639 47L32.639 28.722L37.364998 28.722C 38.031 28.722 38.592 28.226 38.670998 27.573L38.670998 27.573L39.154 23.657C 39.204597 23.287659 39.089706 22.914806 38.84 22.638C 38.59464 22.3535 38.23668 22.191156 37.861 22.194L37.861 22.194L32.64 22.194L32.64 17.625C 32.644394 16.184809 33.810806 15.018393 35.251 15.014L35.251 15.014L37.862 15.014C 38.58237 15.011804 39.165802 14.428372 39.168 13.708L39.168 13.708L39.168 9.296C 39.168 8.629999 38.645 8.068 37.98 8.002999C 37.901 7.9899993 36.06 7.832999 33.723 7.832999C 27.979 7.832999 24.807 11.252999 24.807 17.454998L24.807 17.454998L24.807 22.194998L19.584 22.194998C 18.864407 22.197739 18.28174 22.780405 18.279 23.499998L18.279 23.499998L18.279 27.416998C 18.28174 28.136591 18.864407 28.719257 19.584 28.721998L19.584 28.721998L24.807 28.721998L24.807 47L7.18 47C 3.225 47 0 43.775 0 39.82L0 39.82L0 7.18C 0 3.226 3.225 0 7.18 0L7.18 0L39.82 0C 43.774 0 47 3.225 47 7.18z" stroke="none" fill="#FFFFFF" fill-rule="nonzero" />
</g>
</svg>