<?xml version="1.0" standalone="no"?>
<!DOCTYPE svg PUBLIC "-//W3C//DTD SVG 1.0//EN" "http://www.w3.org/TR/2001/REC-SVG-20010904/DTD/svg10.dtd">
<svg xmlns="http://www.w3.org/2000/svg" xmlns:xlink="http://www.w3.org/1999/xlink" id="body_1" width="24" height="24">

<g transform="matrix(0.5 0 0 0.5 0 0)">
    <path d="M23.806 15.871C 19.434 15.871 15.865999 19.44 15.865999 23.812C 15.865999 28.184 19.434 31.752 23.806 31.752C 28.178 31.752 31.746 28.185001 31.746 23.812C 31.746 19.44 28.179 15.872 23.806 15.872L23.806 15.872L23.806 15.871zM47.622 23.812C 47.622 20.524 47.652 17.265 47.467003 13.982C 47.283005 10.17 46.413002 6.787 43.625004 3.9990005C 40.831 1.205 37.454 0.34 33.641 0.157C 30.352999 -0.027999997 27.093998 0.002000004 23.811998 0.002000004C 20.523998 0.002000004 17.265 -0.027999995 13.981998 0.157C 10.17 0.34 6.788 1.21 4 3.999C 1.205 6.793 0.34 10.17 0.157 13.983C -0.028 17.27 0.002 20.53 0.002 23.812C 0.002 27.094 -0.027999999 30.359001 0.157 33.642C 0.34100002 37.454 1.211 40.836998 3.999 43.625C 6.793 46.419 10.17 47.283 13.983 47.467C 17.271 47.652 20.529999 47.621998 23.812 47.621998C 27.1 47.621998 30.359001 47.651997 33.642 47.467C 37.454 47.283 40.836998 46.413 43.625 43.625C 46.419 40.831 47.283 37.454 47.467 33.641C 47.658 30.359 47.621998 27.100998 47.621998 23.811998zM23.806 36.03C 20.564117 36.034782 17.45364 34.749073 15.161283 32.456715C 12.868924 30.164356 11.583212 27.053879 11.587999 23.811998C 11.583212 20.570118 12.868924 17.45964 15.161283 15.167283C 17.45364 12.874925 20.564117 11.589212 23.806 11.593998C 27.04788 11.5892105 30.15836 12.874924 32.450718 15.167282C 34.743076 17.45964 36.028786 20.570118 36.024002 23.811998C 36.028786 27.053879 34.743073 30.164356 32.450714 32.456715C 30.158358 34.749073 27.04788 36.034786 23.806 36.03zM36.524002 13.946999C 35.767097 13.947796 35.040966 13.647469 34.50575 13.112255C 33.970535 12.577041 33.670208 11.850906 33.671 11.093999C 33.66994 10.336919 33.97015 9.610527 34.505394 9.075096C 35.040634 8.539665 35.766922 8.239202 36.524002 8.239999C 37.281258 8.238935 38.0078 8.539283 38.543262 9.074742C 39.07872 9.610202 39.379066 10.336746 39.378002 11.093999C 39.37827 11.850916 39.077637 12.576894 38.54232 13.112021C 38.007004 13.647149 37.280922 13.94753 36.524002 13.946999z" stroke="none" fill="#FFFFFF" fill-rule="nonzero" />
</g>
</svg>