<?xml version="1.0" standalone="no"?>
<!DOCTYPE svg PUBLIC "-//W3C//DTD SVG 1.0//EN" "http://www.w3.org/TR/2001/REC-SVG-20010904/DTD/svg10.dtd">
<svg xmlns="http://www.w3.org/2000/svg" xmlns:xlink="http://www.w3.org/1999/xlink" id="body_1" width="24" height="24">

<g transform="matrix(0.5 0 0 0.5 0 0)">
    <path d="M42.286 0L5.714 0C 2.558702 0.001103878 0.001103878 2.558702 0 5.714L0 5.714L0 42.286C 0.0011034012 45.44129 2.5587022 47.998894 5.714 48L5.714 48L42.286 48C 45.441296 47.998894 47.998894 45.441296 48 42.286L48 42.286L48 5.714C 47.998894 2.5587022 45.44129 0.0011034012 42.286 0zM14.857 18.286L14.857 40L8 40L8 18.286L14.857 18.286zM8 11.966C 8 10.365999 9.371 9.143 11.429 9.143C 13.486 9.143 14.777 10.365999 14.857 11.966C 14.857 13.566 13.577001 14.856999 11.429001 14.856999C 9.37 14.857 8 13.566 8 11.966zM40 40L33.143 40L33.143 28.571C 33.143 26.286 32 24 29.143002 23.953999L29.143002 23.953999L29.051003 23.953999C 26.286003 23.953999 25.143002 26.308998 25.143002 28.571L25.143002 28.571L25.143002 40L18.286001 40L18.286001 18.286L25.143002 18.286L25.143002 21.210999C 25.143002 21.210999 27.349 18.286 31.783 18.286C 36.32 18.286 40 21.405998 40 27.725998L40 27.725998L40 40z" stroke="none" fill="#FFFFFF" fill-rule="nonzero" />
</g>
</svg>