<?xml version="1.0" standalone="no"?>
<!DOCTYPE svg PUBLIC "-//W3C//DTD SVG 1.0//EN" "http://www.w3.org/TR/2001/REC-SVG-20010904/DTD/svg10.dtd">
<svg xmlns="http://www.w3.org/2000/svg" xmlns:xlink="http://www.w3.org/1999/xlink" id="body_1" width="24" height="24">

<g transform="matrix(0.5 0 0 0.5 0 0)">
    <path d="M37.333 0L10.667 0C 4.776 0 0 4.776 0 10.667L0 10.667L0 37.333C 0 43.224 4.776 48 10.667 48L10.667 48L37.333 48C 43.224 48 48 43.224 48 37.333L48 37.333L48 10.667C 48 4.776 43.224 0 37.333 0zM37.467 17.37L37.467 18.285002C 37.467 26.971 30.836998 37.029 18.723 37.029C 15.066999 37.029 11.636999 35.885 8.667 34.059L8.667 34.059L10.267 34.059C 13.237 34.059 16.211 32.914997 18.496 31.314999C 15.526 31.314999 13.24 29.258999 12.326 26.744C 12.781 26.744 13.24 26.973999 13.469 26.973999C 14.155 26.973999 14.613 26.973999 15.299 26.744C 12.328 26.059 10.042999 23.543999 10.042999 20.344C 10.956999 20.8 11.872 21.029 13.013 21.259C 11.184 19.659 10.042999 17.829 10.042999 15.544001C 10.042999 14.400001 10.271999 13.259001 10.956999 12.344001C 14.156999 16.229 18.956999 18.974 24.442999 19.2C 24.442999 18.744001 24.213 18.285 24.213 17.6C 24.213 13.944 27.184 10.97 30.842999 10.97C 32.671997 10.97 34.498997 11.656 35.642998 13.027C 37.242996 12.797001 38.613 12.112 39.756996 11.427C 39.300995 13.027 38.156998 14.171 36.786995 15.083C 38.156994 14.853001 39.300995 14.627 40.671993 13.939C 39.751995 15.315001 38.610992 16.456 37.466995 17.371z" stroke="none" fill="#FFFFFF" fill-rule="nonzero" />
</g>
</svg>