<?xml version="1.0" standalone="no"?>
<!DOCTYPE svg PUBLIC "-//W3C//DTD SVG 1.0//EN" "http://www.w3.org/TR/2001/REC-SVG-20010904/DTD/svg10.dtd">
<svg xmlns="http://www.w3.org/2000/svg" xmlns:xlink="http://www.w3.org/1999/xlink" id="body_1" width="12" height="12">

<g transform="matrix(0.5 0 0 0.5 0 0)">
    <path d="M21.582 6.186C 21.352001 5.3259997 20.674 4.648 19.814001 4.4179997C 18.254 4 12 4 12 4C 12 4 5.746 4 4.186 4.418C 3.3259997 4.6480002 2.6479998 5.326 2.4179997 6.1860003C 2 7.746 2 12 2 12C 2 12 2 16.254 2.418 17.814C 2.648 18.674 3.326 19.352 4.186 19.581999C 5.746 20 12 20 12 20C 12 20 18.254 20 19.814 19.582C 20.675 19.352001 21.352 18.674 21.581999 17.814001C 22 16.254 22 12 22 12C 22 12 22 7.746 21.582 6.186zM10 15.464L10 8.536L16 12L10 15.464z" stroke="none" fill="#000000" fill-rule="nonzero" />
</g>
</svg>